<svg id="Layer_1" data-name="Layer 1" xmlns="http://www.w3.org/2000/svg" xmlns:xlink="http://www.w3.org/1999/xlink" viewBox="0 0 447 456"><defs><linearGradient id="linear-gradient" x1="1580.28" y1="-434.16" x2="1704.28" y2="-610.16" gradientTransform="translate(650.05 1872.23) rotate(-90)" gradientUnits="userSpaceOnUse"><stop offset="0" stop-color="#71c6d3"/><stop offset="1" stop-color="#22398e"/></linearGradient><linearGradient id="linear-gradient-2" x1="1694.35" y1="-607.85" x2="1806.35" y2="-435.85" xlink:href="#linear-gradient"/><linearGradient id="linear-gradient-3" x1="223.14" y1="60.16" x2="389.14" y2="167.16" gradientTransform="matrix(1, 0, 0, 1, 0, 0)" xlink:href="#linear-gradient"/><linearGradient id="linear-gradient-4" x1="1583.01" y1="-594.73" x2="1467.01" y2="-420.73" gradientTransform="translate(650.05 1872.23) rotate(-90)" gradientUnits="userSpaceOnUse"><stop offset="0" stop-color="#e47d67"/><stop offset="1" stop-color="#ea5555"/></linearGradient><linearGradient id="linear-gradient-5" x1="242.01" y1="150.23" x2="67.01" y2="272.23" gradientTransform="matrix(1, 0, 0, 1, 0, 0)" xlink:href="#linear-gradient-4"/><linearGradient id="linear-gradient-6" x1="1590.57" y1="-250.02" x2="1702.57" y2="-423.35" xlink:href="#linear-gradient-4"/><linearGradient id="linear-gradient-7" x1="205.61" y1="415.26" x2="380.61" y2="295.26" gradientTransform="matrix(1, 0, 0, 1, 0, 0)" xlink:href="#linear-gradient-4"/><linearGradient id="linear-gradient-8" x1="379.26" y1="189.12" x2="203.26" y2="309.12" gradientTransform="matrix(1, 0, 0, 1, 0, 0)" xlink:href="#linear-gradient"/></defs><title>MatchaLogofinal</title><path d="M397.4,241.87L223.5,122.26,49.6,241.87l-0.65-.45v84.28l0.65-.45L223.5,444.87,397.4,325.26l0.65,0.45V241.42ZM223.5,361.48L110.21,283.57,223.5,205.65l113.29,77.92Z" style="fill:#fff"/><polygon points="223.5 254.15 223.5 337.53 48.94 217.47 48.94 134.09 223.5 254.15" style="fill:url(#linear-gradient)"/><polygon points="223.5 98.31 223.5 14.93 48.94 134.99 48.94 218.37 223.5 98.31" style="fill:url(#linear-gradient-2)"/><polygon points="223.5 98.31 223.5 14.93 398.06 134.99 398.06 218.37 223.5 98.31" style="fill:url(#linear-gradient-3)"/><polygon points="223.5 361.48 223.5 444.87 48.94 324.81 48.94 241.42 223.5 361.48" style="fill:url(#linear-gradient-4)"/><polygon points="223.5 205.65 223.5 122.26 48.94 242.32 48.94 325.71 223.5 205.65" style="fill:url(#linear-gradient-5)"/><polygon points="223.5 205.65 223.5 122.26 398.06 242.32 398.06 325.71 223.5 205.65" style="fill:url(#linear-gradient-6)"/><polygon points="223.5 361.48 223.5 444.87 398.06 324.81 398.06 241.42 223.5 361.48" style="fill:url(#linear-gradient-7)"/><polygon points="223.5 254.15 223.5 337.53 398.06 217.47 398.06 134.09 223.5 254.15" style="fill:url(#linear-gradient-8)"/></svg>